<svg width="145" height="69" viewBox="0 0 145 69" fill="none" xmlns="http://www.w3.org/2000/svg">
<g id="Logo 1">
<g id="Group">
<path id="Vector" d="M85.5482 35.0982C84.3622 35.7217 82.7893 36.2568 80.6528 36.2568C77.1788 36.2568 75.0718 35.0687 73.4105 33.4931C71.1268 31.2939 70.2352 28.8251 70.2352 25.914C70.2352 22.3161 71.7198 19.7293 73.4105 18.1537C75.3998 16.2789 77.8644 15.5374 80.6822 15.5374C82.0785 15.5374 83.7397 15.7733 85.5482 16.755V21.2755C83.7397 19.1943 81.4813 19.0468 80.7705 19.0468C76.7919 19.0468 74.2096 22.3161 74.2096 25.9729C74.2096 30.3713 77.5952 32.7516 80.9177 32.7516C82.7598 32.7516 84.3916 31.9469 85.5482 30.5819V35.1024V35.0982Z" fill="#01799B"/>
<path id="Vector_2" d="M94.4222 15.9798C97.1812 15.9798 99.5868 16.2789 101.782 17.9135C104.188 19.7251 105.58 22.611 105.58 25.9097C105.58 29.2085 104.213 32.0649 101.601 33.9059C99.2882 35.5406 97.1181 35.8102 94.3591 35.8102H89.2534V15.9798H94.418H94.4222ZM93.1185 32.482H94.3045C95.2844 32.482 97.4209 32.423 99.141 31.1717C100.714 30.0427 101.606 28.0204 101.606 25.9097C101.606 23.799 100.743 21.8063 99.1705 20.6182C97.5681 19.4302 95.6082 19.308 94.3045 19.308H93.1185V32.4777V32.482Z" fill="#01799B"/>
<path id="Vector_3" d="M123.66 35.0982C122.474 35.7217 120.901 36.2568 118.765 36.2568C115.291 36.2568 113.184 35.0687 111.523 33.4931C109.239 31.2939 108.347 28.8251 108.347 25.914C108.347 22.3161 109.832 19.7293 111.523 18.1537C113.512 16.2789 115.976 15.5374 118.794 15.5374C120.191 15.5374 121.852 15.7733 123.66 16.755V21.2755C121.852 19.1943 119.593 19.0468 118.883 19.0468C114.904 19.0468 112.322 22.3161 112.322 25.9729C112.322 30.3713 115.707 32.7516 119.03 32.7516C120.872 32.7516 122.504 31.9469 123.66 30.5819V35.1024V35.0982Z" fill="#01799B"/>
<path id="Vector_4" d="M139.095 31.6478H131.113L129.363 35.8102H125.179L133.695 15.9798H136.723L145.004 35.8102H140.849L139.099 31.6478H139.095ZM137.968 28.4965L135.15 21.3597L132.332 28.4965H137.972H137.968Z" fill="#01799B"/>
</g>
<g id="Group_2">
<path id="Vector_5" d="M72.418 44.1393H74.0414C74.8405 44.1393 75.9718 44.2235 76.9728 45.0704C77.7004 45.6812 78.3312 46.6966 78.3312 48.129C78.3312 49.8015 77.5069 50.6947 76.9349 51.1876C76.2073 51.8069 75.4461 52.106 74.0246 52.106H72.4138V44.1393H72.418ZM73.3012 51.2718H74.075C74.7059 51.2718 75.5765 51.2002 76.3545 50.5556C76.9517 50.0543 77.427 49.2665 77.427 48.1332C77.427 46.2205 76.0896 44.9777 74.075 44.9777H73.3012V51.2718Z" fill="#01799B"/>
<path id="Vector_6" d="M84.0762 44.9777H80.8336V47.3411H83.9795V48.1753H80.8336V51.2676H84.0762V52.1018H79.9504V44.1351H84.0762V44.9692V44.9777Z" fill="#01799B"/>
<path id="Vector_7" d="M89.2534 45.7149C89.1483 45.5001 88.9674 45.2599 88.7866 45.1167C88.631 44.9987 88.345 44.8428 87.8908 44.8428C87.1043 44.8428 86.5576 45.3315 86.5576 46.073C86.5576 46.3848 86.6417 46.5617 86.8562 46.764C87.0959 47.0041 87.3945 47.1347 87.6889 47.2653L88.4501 47.5981C88.917 47.8003 89.3459 48.0152 89.6782 48.3522C90.0819 48.7567 90.2502 49.2243 90.2502 49.7973C90.2502 51.2676 89.1651 52.245 87.7352 52.245C87.2095 52.245 86.5534 52.1397 86.0066 51.6004C85.6113 51.2171 85.3758 50.6694 85.2664 50.1891L86.1244 49.949C86.1833 50.366 86.3725 50.7241 86.5996 50.9643C86.9445 51.3097 87.3398 51.4066 87.7436 51.4066C88.8286 51.4066 89.3417 50.6315 89.3417 49.831C89.3417 49.4729 89.2366 49.1611 88.9464 48.8999C88.7193 48.6851 88.4081 48.5418 87.9917 48.3522L87.2767 48.0194C86.9655 47.8762 86.5744 47.7077 86.2169 47.3622C85.872 47.0294 85.6702 46.6586 85.6702 46.0604C85.6702 44.8302 86.6122 44.0045 87.8992 44.0045C88.387 44.0045 88.7824 44.1014 89.1735 44.3626C89.4974 44.5774 89.7707 44.9018 89.9474 45.2473L89.245 45.7149H89.2534Z" fill="#01799B"/>
<path id="Vector_8" d="M92.7568 44.1393V52.106H91.8736V44.1393H92.7568Z" fill="#01799B"/>
<path id="Vector_9" d="M98.9097 48.1079H102.224V48.2975C102.224 49.1822 101.963 50.1385 101.463 50.8168C101.223 51.137 100.331 52.2492 98.506 52.2492C96.1466 52.2492 94.3802 50.4461 94.3802 48.1289C94.3802 45.8118 96.155 44.0087 98.5312 44.0087C99.2924 44.0087 100.188 44.1983 100.962 44.7965C101.32 45.0703 101.652 45.4284 101.879 45.7402L101.223 46.3384C100.996 46.014 100.735 45.7276 100.47 45.5127C100.087 45.2009 99.4901 44.8428 98.5396 44.8428C96.6218 44.8428 95.2844 46.2879 95.2844 48.1416C95.2844 50.3155 97.013 51.4151 98.5144 51.4151C99.5742 51.4151 100.495 50.8758 100.945 50.0796C101.088 49.8268 101.244 49.4476 101.269 48.9463H98.9097V48.1121V48.1079Z" fill="#01799B"/>
<path id="Vector_10" d="M103.847 52.106V43.8065L110.046 50.3155V44.1393H110.93V52.4641L104.73 45.9551V52.106H103.847Z" fill="#01799B"/>
<path id="Vector_11" d="M121.873 49.1906C121.658 49.4897 121.347 49.8731 120.859 50.3745L122.197 52.106H121.099L120.241 50.9938C119.551 51.6847 118.584 52.2492 117.68 52.2492C116.38 52.2492 115.379 51.3055 115.379 50.0416C115.379 49.1822 115.833 48.6556 116.094 48.3944C116.511 47.9773 117.263 47.5096 117.427 47.4043C116.889 46.7134 116.641 46.2331 116.641 45.6981C116.641 44.8639 117.226 44.0129 118.37 44.0129C119.513 44.0129 120.052 44.8133 120.052 45.6138C120.052 45.9845 119.947 46.5112 119.312 47.0589C119.11 47.2358 119.181 47.1431 118.668 47.5728L120.325 49.713C120.754 49.258 121.006 48.9715 121.229 48.6598L121.873 49.199V49.1906ZM117.936 48.0573C117.352 48.4154 117.04 48.6766 116.813 48.8831C116.586 49.0853 116.254 49.4097 116.254 50.029C116.254 50.8168 116.839 51.4361 117.663 51.4361C118.487 51.4361 119.404 50.623 119.703 50.3365L117.936 48.0531V48.0573ZM118.151 46.924L118.677 46.5196C119.131 46.1615 119.215 45.875 119.215 45.6012C119.215 45.0408 118.773 44.7754 118.357 44.7754C117.869 44.7754 117.474 45.1462 117.474 45.6475C117.474 45.993 117.642 46.2205 117.798 46.4353L118.155 46.924H118.151Z" fill="#01799B"/>
<path id="Vector_12" d="M126.116 44.1393H127.74C128.539 44.1393 129.67 44.2235 130.671 45.0704C131.399 45.6812 132.03 46.6966 132.03 48.129C132.03 49.8015 131.205 50.6947 130.633 51.1876C129.906 51.8069 129.145 52.106 127.723 52.106H126.112V44.1393H126.116ZM127 51.2718H127.773C128.404 51.2718 129.275 51.2002 130.053 50.5556C130.65 50.0543 131.125 49.2665 131.125 48.1332C131.125 46.2205 129.788 44.9777 127.773 44.9777H127V51.2718Z" fill="#01799B"/>
<path id="Vector_13" d="M137.779 44.9777H134.536V47.3411H137.682V48.1753H134.536V51.2676H137.779V52.1018H133.653V44.1351H137.779V44.9692V44.9777Z" fill="#01799B"/>
<path id="Vector_14" d="M139.449 44.1393L141.69 50.2186L143.932 44.1393H144.907L141.69 52.5821L138.469 44.1393H139.449Z" fill="#01799B"/>
</g>
<path id="Vector_15" d="M55.469 29.7267C55.469 15.58 44.0215 4.11185 29.9004 4.11185C15.7793 4.11185 4.33185 15.58 4.33185 29.7267V41.7968C4.33185 55.9435 15.7793 67.4117 29.9004 67.4117C44.0215 67.4117 55.469 55.9435 55.469 41.7968V29.7267Z" fill="#067A9C"/>
<path id="Vector_16" d="M41.9477 12.3861C32.8381 26.4785 41.2916 7.17047 43.6005 3.26083C48.2184 2.38032 42.9234 10.2544 41.9477 12.3861Z" fill="#A1C264"/>
<path id="Vector_17" d="M16.8775 8.98626C17.1046 7.89088 13.4835 2.27078 17.4747 3.39565C18.8457 6.36579 19.893 8.85987 20.7888 11.8595C24.2543 22.9059 18.4967 14.3325 16.8775 8.98626Z" fill="#F28A29"/>
<path id="Vector_18" d="M29.318 0.139018C33.3218 -1.65992 30.9371 14.5347 29.8815 15.5164C28.8848 16.1651 28.153 1.41133 29.318 0.139018Z" fill="#FEDC0F"/>
<path id="Vector_19" d="M53.4208 13.5152C57.0504 13.8438 45.8548 23.066 43.958 23.066C43.6931 21.6294 45.6739 20.1043 46.4478 19.0932C47.066 18.2211 47.9703 17.5217 48.5422 16.8519C48.4749 16.6286 48.7441 16.6496 48.8535 16.6075C49.3203 15.9292 52.9624 12.0449 53.4208 13.511" fill="#089ED3"/>
<path id="Vector_20" d="M16.3434 20.8289C13.3153 20.7236 10.7119 17.5302 8.67218 16.1989C6.70391 14.9434 3.69262 11.7415 7.10345 11.6826C10.6657 14.1177 14.0176 17.1046 16.3434 20.8289Z" fill="#D31416"/>
<path id="Vector_21" d="M60.9574 26.647C57.0882 28.2353 52.403 28.4544 48.1132 29.0147C49.0805 27.6666 62.7701 22.2361 60.9574 26.647Z" fill="#694A98"/>
<path id="Vector_22" d="M46.2501 42.1339C47.9114 39.8168 49.11 34.9466 44.551 36.1852C41.6239 36.9225 39.4159 43.6885 37.7925 44.708C37.3172 44.4089 38.9322 41.1649 39.3612 40.0359C40.3453 37.3985 43.1211 31.0622 42.7888 28.7914C42.0192 25.4927 37.9102 26.6892 36.9009 29.3855C36.0135 30.9695 32.0811 39.3786 31.6017 40.1201C31.0129 35.7007 37.5906 20.593 29.4273 21.5788C24.7338 23.6137 25.8735 36.8298 24.0062 38.3001C22.5005 35.4142 25.6674 24.7217 19.7584 24.115C16.049 25.6444 17.3948 38.852 16.5999 42.8796C14.9976 40.6383 11.5657 35.7681 8.81518 39.1469C7.24645 43.1661 11.0232 46.9367 12.0283 50.682C12.4994 55.7502 17.0415 60.3761 15.8051 65.4864C15.5022 66.2195 16.6252 66.7671 17.0079 66.0551C18.5598 62.7732 16.6883 59.5293 15.3971 56.5423C14.1312 53.2814 13.82 49.7215 12.1335 46.6123C11.2587 45.1967 8.52498 39.109 11.6919 39.9727C14.9261 41.4135 18.3117 50.8505 20.5154 51.1497C21.1589 51.2381 18.6103 45.8708 18.0383 45.0366C19.0182 42.9091 18.4757 24.2878 20.751 26.2637C22.2524 29.2043 21.8823 32.7011 21.9244 35.9029C21.9159 37.4112 21.5248 41.2703 23.7496 41.4177C26.2436 41.5862 26.66 37.685 26.9964 35.9872C27.4338 34.5421 29.053 20.058 31.2526 24.7259C32.8466 27.3 26.5969 45.4369 32.1274 42.0623C33.7634 41.2576 39.0247 26.3985 40.8416 28.8673C41.1318 34.3062 36.3121 39.5809 36.2616 45.201C36.3751 47.4001 38.9448 46.1194 39.5631 44.8723C41.3926 42.8248 42.7552 37.6892 45.9473 38.119C42.8772 44.4342 40.8164 51.7774 37.1111 57.8567C34.7181 60.9912 31.3788 63.679 30.7185 67.8204C30.3904 69.1138 32.468 69.4845 32.7709 68.1785C33.162 66.2574 34.0536 64.4458 35.3279 62.9586C41.0981 57.2922 42.8561 49.2075 46.2585 42.1297L46.2501 42.1339Z" fill="white"/>
<path id="Vector_23" d="M8.06651 24.629C21.4491 30.2238 3.89866 26.4827 0.227085 25.143C-1.39632 20.85 6.11927 24.174 8.06651 24.629Z" fill="#313383"/>
</g>
</svg>
